HIERARCHY
ROOT Root
{
  OFFSET 0.0 0.0 0.0
  CHANNELS 6 Xposition Yposition Zposition Zrotation Yrotation Xrotation
  JOINT Hips
  {
    OFFSET 0.0 100.0 0.0
    CHANNELS 6 Xposition Yposition Zposition Zrotation Yrotation Xrotation
    JOINT Spine1
    {
      OFFSET -0.013727 5.003763 -0.053727
      CHANNELS 3 Zrotation Yrotation Xrotation
      JOINT Spine2
      {
        OFFSET -0.0 7.125301 -0.029825
        CHANNELS 3 Zrotation Yrotation Xrotation
        JOINT Chest
        {
          OFFSET -1e-06 7.550063 -0.815971
          CHANNELS 3 Zrotation Yrotation Xrotation
          JOINT Neck1
          {
            OFFSET -0.181677 26.311295 -0.553348
            CHANNELS 3 Zrotation Yrotation Xrotation
            JOINT Neck2
            {
              OFFSET -3e-06 7.709397 2.302585
              CHANNELS 3 Zrotation Yrotation Xrotation
              JOINT Head
              {
                OFFSET -5e-06 6.128916 1.953709
                CHANNELS 3 Zrotation Yrotation Xrotation
                JOINT HeadEnd
                {
                  OFFSET 0.003598 16.065403 -1.835379
                  CHANNELS 3 Zrotation Yrotation Xrotation
                }
                JOINT Jaw
                {
                  OFFSET 0.002637 0.475592 3.094941
                  CHANNELS 3 Zrotation Yrotation Xrotation
                }
                JOINT LeftEye
                {
                  OFFSET 3.206381 5.380205 7.586883
                  CHANNELS 3 Zrotation Yrotation Xrotation
                }
                JOINT RightEye
                {
                  OFFSET -3.22244 5.361869 7.558234
                  CHANNELS 3 Zrotation Yrotation Xrotation
                }
              }
            }
          }
          JOINT LeftShoulder
          {
            OFFSET 1.621652 23.237164 5.113413
            CHANNELS 3 Zrotation Yrotation Xrotation
            JOINT LeftArm
            {
              OFFSET 14.919846 2e-06 -5.502326
              CHANNELS 3 Zrotation Yrotation Xrotation
              JOINT LeftForeArm
              {
                OFFSET 28.739307 0.0 -0.002588
                CHANNELS 3 Zrotation Yrotation Xrotation
                JOINT LeftHand
                {
                  OFFSET 27.093981 -1e-06 0.002609
                  CHANNELS 3 Zrotation Yrotation Xrotation
                  JOINT LeftHandThumb1
                  {
                    OFFSET 2.276482 -1.392045 3.191413
                    CHANNELS 3 Zrotation Yrotation Xrotation
                    JOINT LeftHandThumb2
                    {
                      OFFSET 4.012836 -1.828127 1.641654
                      CHANNELS 3 Zrotation Yrotation Xrotation
                      JOINT LeftHandThumb3
                      {
                        OFFSET 2.798515 0.0 -3e-06
                        CHANNELS 3 Zrotation Yrotation Xrotation
                        JOINT LeftHandThumbEnd
                        {
                          OFFSET 3.180793 -4e-06 4e-06
                          CHANNELS 3 Zrotation Yrotation Xrotation
                        }
                      }
                    }
                  }
                  JOINT LeftHandIndex1
                  {
                    OFFSET 3.247555 -0.531998 2.296169
                    CHANNELS 3 Zrotation Yrotation Xrotation
                    JOINT LeftHandIndex2
                    {
                      OFFSET 6.364578 0.01206 0.1786
                      CHANNELS 3 Zrotation Yrotation Xrotation
                      JOINT LeftHandIndex3
                      {
                        OFFSET 3.662364 0.0 0.0
                        CHANNELS 3 Zrotation Yrotation Xrotation
                        JOINT LeftHandIndex4
                        {
                          OFFSET 2.329242 4e-06 4e-06
                          CHANNELS 3 Zrotation Yrotation Xrotation
                          JOINT LeftHandIndexEnd
                          {
                            OFFSET 2.759615 -0.180537 -0.113024
                            CHANNELS 3 Zrotation Yrotation Xrotation
                          }
                        }
                      }
                    }
                  }
                  JOINT LeftHandMiddle1
                  {
                    OFFSET 3.163495 0.240981 1.000332
                    CHANNELS 3 Zrotation Yrotation Xrotation
                    JOINT LeftHandMiddle2
                    {
                      OFFSET 6.19078 -0.259278 -1.002548
                      CHANNELS 3 Zrotation Yrotation Xrotation
                      JOINT LeftHandMiddle3
                      {
                        OFFSET 4.35652 -4e-06 -1e-06
                        CHANNELS 3 Zrotation Yrotation Xrotation
                        JOINT LeftHandMiddle4
                        {
                          OFFSET 2.996877 -8e-06 0.0
                          CHANNELS 3 Zrotation Yrotation Xrotation
                          JOINT LeftHandMiddleEnd
                          {
                            OFFSET 2.304287 -0.294569 -0.031741
                            CHANNELS 3 Zrotation Yrotation Xrotation
                          }
                        }
                      }
                    }
                  }
                  JOINT LeftHandRing1
                  {
                    OFFSET 2.882643 -0.053652 -0.322543
                    CHANNELS 3 Zrotation Yrotation Xrotation
                    JOINT LeftHandRing2
                    {
                      OFFSET 5.854541 -0.486202 -1.373841
                      CHANNELS 3 Zrotation Yrotation Xrotation
                      JOINT LeftHandRing3
                      {
                        OFFSET 4.350578 0.0 3e-06
                        CHANNELS 3 Zrotation Yrotation Xrotation
                        JOINT LeftHandRing4
                        {
                          OFFSET 2.651321 7e-06 2e-06
                          CHANNELS 3 Zrotation Yrotation Xrotation
                          JOINT LeftHandRingEnd
                          {
                            OFFSET 1.936105 0.077687 -7.1e-05
                            CHANNELS 3 Zrotation Yrotation Xrotation
                          }
                        }
                      }
                    }
                  }
                  JOINT LeftHandPinky1
                  {
                    OFFSET 2.8655 -0.310005 -1.600378
                    CHANNELS 3 Zrotation Yrotation Xrotation
                    JOINT LeftHandPinky2
                    {
                      OFFSET 5.087849 -1.331141 -1.77123
                      CHANNELS 3 Zrotation Yrotation Xrotation
                      JOINT LeftHandPinky3
                      {
                        OFFSET 3.070974 4e-06 0.0
                        CHANNELS 3 Zrotation Yrotation Xrotation
                        JOINT LeftHandPinky4
                        {
                          OFFSET 1.549672 0.0 1e-06
                          CHANNELS 3 Zrotation Yrotation Xrotation
                          JOINT LeftHandPinkyEnd
                          {
                            OFFSET 1.944893 -0.157802 0.057219
                            CHANNELS 3 Zrotation Yrotation Xrotation
                          }
                        }
                      }
                    }
                  }
                }
              }
            }
          }
          JOINT RightShoulder
          {
            OFFSET -1.380118 23.180309 5.214158
            CHANNELS 3 Zrotation Yrotation Xrotation
            JOINT RightArm
            {
              OFFSET -15.037196 1.2e-05 -5.545604
              CHANNELS 3 Zrotation Yrotation Xrotation
              JOINT RightForeArm
              {
                OFFSET -28.736639 2e-06 -0.002597
                CHANNELS 3 Zrotation Yrotation Xrotation
                JOINT RightHand
                {
                  OFFSET -27.133619 -0.0 0.002613
                  CHANNELS 3 Zrotation Yrotation Xrotation
                  JOINT RightHandThumb1
                  {
                    OFFSET -2.274032 -1.383988 3.163127
                    CHANNELS 3 Zrotation Yrotation Xrotation
                    JOINT RightHandThumb2
                    {
                      OFFSET -4.011429 -1.827466 1.640914
                      CHANNELS 3 Zrotation Yrotation Xrotation
                      JOINT RightHandThumb3
                      {
                        OFFSET -2.794935 -4e-06 -3e-06
                        CHANNELS 3 Zrotation Yrotation Xrotation
                        JOINT RightHandThumbEnd
                        {
                          OFFSET -3.183852 4e-06 1e-06
                          CHANNELS 3 Zrotation Yrotation Xrotation
                        }
                      }
                    }
                  }
                  JOINT RightHandIndex1
                  {
                    OFFSET -3.253266 -0.520057 2.282866
                    CHANNELS 3 Zrotation Yrotation Xrotation
                    JOINT RightHandIndex2
                    {
                      OFFSET -6.341917 0.012471 0.178266
                      CHANNELS 3 Zrotation Yrotation Xrotation
                      JOINT RightHandIndex3
                      {
                        OFFSET -3.654871 -8e-06 -0.0
                        CHANNELS 3 Zrotation Yrotation Xrotation
                        JOINT RightHandIndex4
                        {
                          OFFSET -2.327586 0.0 1e-06
                          CHANNELS 3 Zrotation Yrotation Xrotation
                          JOINT RightHandIndexEnd
                          {
                            OFFSET -2.76179 -0.180656 -0.113078
                            CHANNELS 3 Zrotation Yrotation Xrotation
                          }
                        }
                      }
                    }
                  }
                  JOINT RightHandMiddle1
                  {
                    OFFSET -3.168106 0.246593 1.00103
                    CHANNELS 3 Zrotation Yrotation Xrotation
                    JOINT RightHandMiddle2
                    {
                      OFFSET -6.180828 -0.258836 -1.000895
                      CHANNELS 3 Zrotation Yrotation Xrotation
                      JOINT RightHandMiddle3
                      {
                        OFFSET -4.348901 0.0 -0.0
                        CHANNELS 3 Zrotation Yrotation Xrotation
                        JOINT RightHandMiddle4
                        {
                          OFFSET -3.00024 -4e-06 -2e-06
                          CHANNELS 3 Zrotation Yrotation Xrotation
                          JOINT RightHandMiddleEnd
                          {
                            OFFSET -2.30252 -0.29437 -0.031706
                            CHANNELS 3 Zrotation Yrotation Xrotation
                          }
                        }
                      }
                    }
                  }
                  JOINT RightHandRing1
                  {
                    OFFSET -2.88569 -0.067952 -0.308858
                    CHANNELS 3 Zrotation Yrotation Xrotation
                    JOINT RightHandRing2
                    {
                      OFFSET -5.854198 -0.48613 -1.373731
                      CHANNELS 3 Zrotation Yrotation Xrotation
                      JOINT RightHandRing3
                      {
                        OFFSET -4.33881 -4e-06 -0.0
                        CHANNELS 3 Zrotation Yrotation Xrotation
                        JOINT RightHandRing4
                        {
                          OFFSET -2.654903 -4e-06 4e-06
                          CHANNELS 3 Zrotation Yrotation Xrotation
                          JOINT RightHandRingEnd
                          {
                            OFFSET -1.933568 0.077527 -5.2e-05
                            CHANNELS 3 Zrotation Yrotation Xrotation
                          }
                        }
                      }
                    }
                  }
                  JOINT RightHandPinky1
                  {
                    OFFSET -2.866425 -0.342796 -1.584145
                    CHANNELS 3 Zrotation Yrotation Xrotation
                    JOINT RightHandPinky2
                    {
                      OFFSET -5.091371 -1.332055 -1.772385
                      CHANNELS 3 Zrotation Yrotation Xrotation
                      JOINT RightHandPinky3
                      {
                        OFFSET -3.062664 -4e-06 1e-06
                        CHANNELS 3 Zrotation Yrotation Xrotation
                        JOINT RightHandPinky4
                        {
                          OFFSET -1.546529 4e-06 -2e-06
                          CHANNELS 3 Zrotation Yrotation Xrotation
                          JOINT RightHandPinkyEnd
                          {
                            OFFSET -1.945119 -0.157718 0.057211
                            CHANNELS 3 Zrotation Yrotation Xrotation
                          }
                        }
                      }
                    }
                  }
                }
              }
            }
          }
        }
      }
    }
    JOINT LeftLeg
    {
      OFFSET 10.043214 -8.434526 2.595655
      CHANNELS 3 Zrotation Yrotation Xrotation
      JOINT LeftShin
      {
        OFFSET -1e-06 -43.221752 -0.802913
        CHANNELS 3 Zrotation Yrotation Xrotation
        JOINT LeftFoot
        {
          OFFSET 1e-06 -42.155094 -3.481523
          CHANNELS 3 Zrotation Yrotation Xrotation
          JOINT LeftToeBase
          {
            OFFSET 0.0 -5.059472 13.231529
            CHANNELS 3 Zrotation Yrotation Xrotation
            JOINT LeftToeEnd
            {
              OFFSET -0.009607 -1.647619 6.513017
              CHANNELS 3 Zrotation Yrotation Xrotation
            }
          }
        }
      }
    }
    JOINT RightLeg
    {
      OFFSET -10.047278 -8.29526 2.620317
      CHANNELS 3 Zrotation Yrotation Xrotation
      JOINT RightShin
      {
        OFFSET 1e-06 -43.362206 -0.805556
        CHANNELS 3 Zrotation Yrotation Xrotation
        JOINT RightFoot
        {
          OFFSET 2e-06 -42.117393 -3.478398
          CHANNELS 3 Zrotation Yrotation Xrotation
          JOINT RightToeBase
          {
            OFFSET -0.0 -5.079609 13.284196
            CHANNELS 3 Zrotation Yrotation Xrotation
            JOINT RightToeEnd
            {
              OFFSET 0.009532 -1.634378 6.460591
              CHANNELS 3 Zrotation Yrotation Xrotation
            }
          }
        }
      }
    }
  }
}
MOTION
Frames: 5
Frame Time: 0.03333333333333333
-0.07432 0.0 -1.92502 0.0 0.014255 0.0 0.0 99.136383 0.0 -0.556846 -0.060705 -6.229884 0.522569 0.147838 1.379671 -0.54674 0.593104 -4.202081 -2.882489 -0.920365 9.768275 2.709213 1.864654 11.492046 -0.033368 1.979137 -3.636233 2.403039 1.417102 -12.443039 7.7e-05 -2.2e-05 6e-06 0.005388 -0.055003 0.060372 0.676134 -3.795357 -10.574354 -0.665239 3.699199 -10.566304 -16.009932 -3.895144 11.148609 -54.961472 -10.01568 22.187908 0.246401 -22.808674 0.006269 -3.550579 0.606957 -3.027848 -5.882104 9.861282 0.702591 -10.936868 -0.360574 7.156201 0.0 8.774821 0.0 -15.977592 18.036392 6.118881 -1.844032 2.498502 -2.507276 -10.163596 4.678943 4.621108 -20.976015 -2e-06 1e-06 -21.22628 2.451697 -3.593998 0.0 -6e-06 -1e-06 -1.362681 2.240798 -0.746322 -21.334906 0.584911 3.00832 -13.821208 -2e-06 1e-06 -23.887161 -0.249076 -0.839483 -59.957771 2.350343 -1.151141 -0.294024 1.679687 0.833256 -14.218204 0.093216 1.300579 -34.212036 -0.287561 0.967167 -20.033209 0.964536 1.212838 1e-06 0.0 -1e-06 -3.440388 0.788232 0.501656 -15.928179 -3.167307 2.999706 -6.338824 -1e-06 0.0 -18.123444 3.648181 -4.905666 -2e-06 0.0 -3e-06 17.625404 7.874886 13.020772 53.068192 2.935076 7.493759 0.628503 24.260239 0.141274 8.660645 -4.631678 -6.369819 2.243541 -5.255035 -3.180155 14.282887 -0.826594 6.9525 -3e-06 -12.690602 2e-06 15.95121 -17.613182 2.546529 1.665665 -1.955921 -2.878298 4.727797 -4.170586 4.99392 11.02052 3e-06 -1e-06 12.109046 -3.735714 -2.866784 1e-06 -0.0 0.0 1.291985 -1.928549 -1.49809 14.800122 0.567467 3.865606 14.242565 -1.341737 -6.660655 19.631958 0.143926 -0.648245 49.549438 -0.385956 -6.494554 0.353029 -1.51115 -0.03194 20.222784 3.684309 2.316629 18.787266 4e-06 -1e-06 10.751624 -0.479868 1.397904 -0.0 0.0 1e-06 3.273805 0.305948 -0.58011 21.486801 11.830369 2.26613 8.162924 1e-06 -1e-06 18.399075 -3.798985 -4.940573 3e-06 0.0 -3e-06 10.485826 14.497727 3.3308 -0.052191 -0.062874 11.113866 -10.47256 1.417376 -5.929118 1.603012 -1.98586 -1.178407 0.0 -0.0 2e-06 -8.848611 -10.942806 1.405764 -0.035486 -0.113929 9.91296 9.856576 -5.443397 -3.493116 -1.414908 1.060468 -0.056309 0.0 0.0 -1e-06 
0.013774 0.0 -1.8794 0.0 -0.046601 0.0 0.0 99.160583 0.0 -0.545172 -0.061033 -6.357901 0.455394 0.115879 1.36513 -0.526561 0.644186 -4.214852 -3.128169 -0.937061 9.733047 2.734383 1.883345 11.540617 -0.024076 1.855178 -3.641901 2.401933 1.27322 -12.511581 7.7e-05 -2.2e-05 6e-06 0.001735 -0.046134 0.054246 0.661985 -3.78572 -10.571257 -0.658556 3.707838 -10.558407 -15.917225 -3.902275 11.140724 -55.098328 -9.873887 22.180231 0.293194 -23.304499 -0.050402 -3.381465 0.538462 -2.629577 -5.882112 9.861293 0.702593 -10.936881 -0.360576 7.156211 1e-06 8.774832 -1e-06 -16.01973 18.109312 6.06607 -1.844034 2.498506 -2.507279 -10.163609 4.678948 4.621113 -20.976044 -5e-06 2e-06 -21.226303 2.451698 -3.594003 1e-06 -6e-06 -1e-06 -1.362684 2.240799 -0.746322 -21.334934 0.58491 3.008324 -13.821228 -4e-06 2e-06 -23.887199 -0.24908 -0.839484 -59.938911 2.404253 -1.134819 -0.294024 1.679688 0.833256 -14.218224 0.093213 1.300583 -34.212082 -0.287566 0.967171 -20.033232 0.964537 1.212844 0.0 1e-06 2e-06 -3.440392 0.788235 0.501657 -15.928203 -3.167313 2.99971 -6.338832 -2e-06 1e-06 -18.123465 3.648185 -4.905675 -2e-06 -0.0 -3e-06 17.720469 7.70673 12.925468 50.528572 2.211545 3.44108 0.479192 25.284018 0.163426 8.021341 -5.800875 -7.652463 2.243542 -5.255042 -3.180159 14.282904 -0.826595 6.952507 -2e-06 -12.690618 -1e-06 16.032642 -17.646212 2.622231 1.665667 -1.955924 -2.8783 4.727803 -4.170592 4.993927 11.020536 3e-06 -1e-06 12.10906 -3.735719 -2.866787 -0.0 0.0 0.0 1.291986 -1.928551 -1.498089 14.80014 0.567469 3.865609 14.242584 -1.341738 -6.660661 19.631987 0.143926 -0.648243 49.81741 -0.333056 -6.348377 0.353029 -1.511152 -0.031939 20.222809 3.684315 2.316631 18.787289 5e-06 -1e-06 10.751636 -0.479868 1.397907 0.0 0.0 -1e-06 3.27381 0.305947 -0.580111 21.486834 11.830389 2.266137 8.162935 2e-06 0.0 18.399099 -3.798988 -4.940579 2e-06 -0.0 -2e-06 10.47876 14.568741 3.690026 -0.070974 -0.112039 10.780323 -10.433314 1.464378 -5.836215 1.607421 -2.018852 -1.303066 0.0 -0.0 2e-06 -8.91195 -10.788902 1.842493 -0.057512 -0.119406 9.323602 9.829016 -5.414453 -3.251826 -1.421435 1.046959 -0.017098 0.0 0.0 -1e-06 
0.115077 0.0 -1.838763 0.0 -0.109241 0.0 0.0 99.166885 0.0 -0.508901 -0.058451 -6.474487 0.35529 0.070557 1.304798 -0.514746 0.678985 -4.239614 -3.387172 -0.935612 9.740144 2.800028 1.896687 11.579166 -0.048667 1.684016 -3.680126 2.379804 1.079134 -12.428593 7.7e-05 -2.2e-05 6e-06 0.000587 -0.073575 0.053101 0.65085 -3.809956 -10.5825 -0.649943 3.677167 -10.56925 -15.80979 -3.928834 11.15492 -55.215034 -9.651256 22.217823 0.363348 -23.826189 -0.115972 -3.259409 0.600618 -2.568762 -5.882107 9.861288 0.70259 -10.936872 -0.360574 7.156203 -0.0 8.774826 -3e-06 -16.055338 18.171144 6.015709 -1.844033 2.498506 -2.507277 -10.163601 4.678946 4.621105 -20.976025 -4e-06 -0.0 -21.226288 2.451697 -3.594002 0.0 -7e-06 0.0 -1.362682 2.240798 -0.746322 -21.334917 0.58491 3.008319 -13.821216 -3e-06 0.0 -23.887178 -0.249083 -0.839486 -59.900017 2.437986 -1.19302 -0.294025 1.679687 0.833256 -14.21821 0.093216 1.300579 -34.212051 -0.287565 0.967167 -20.033215 0.964533 1.212841 -0.0 0.0 1e-06 -3.440389 0.788232 0.501654 -15.928187 -3.167311 2.999706 -6.338826 -0.0 0.0 -18.123449 3.648182 -4.905674 -2e-06 -1e-06 -3e-06 17.728838 7.553065 12.703928 47.515041 1.188174 -1.287635 0.507753 27.017122 0.345605 6.753426 -6.892798 -8.929956 2.243543 -5.255037 -3.180158 14.282896 -0.826595 6.952505 -3e-06 -12.690608 2e-06 16.025669 -17.66119 2.716679 1.665665 -1.955921 -2.878299 4.727801 -4.170589 4.993925 11.020532 3e-06 -1e-06 12.109057 -3.735717 -2.866784 -0.0 -0.0 0.0 1.291986 -1.92855 -1.49809 14.800132 0.567468 3.86561 14.242577 -1.341737 -6.660658 19.631973 0.143925 -0.648244 49.907047 -0.274668 -6.21954 0.35303 -1.511152 -0.031939 20.222799 3.684311 2.316631 18.787279 4e-06 -1e-06 10.751633 -0.479869 1.397905 1e-06 -0.0 0.0 3.273808 0.305948 -0.580111 21.486822 11.830378 2.266133 8.16293 3e-06 -1e-06 18.399088 -3.798986 -4.940577 3e-06 -1e-06 -2e-06 10.41847 14.622178 3.942855 -0.065665 -0.147 10.624528 -10.323044 1.456518 -5.827186 1.610386 -2.02615 -1.352864 0.0 -1e-06 2e-06 -9.019284 -10.625327 2.139515 -0.058972 -0.124745 8.991083 9.872061 -5.407362 -3.129872 -1.421655 1.070694 -0.009761 0.0 0.0 -1e-06 
0.205533 0.0 -1.81598 0.0 -0.204614 0.0 0.0 99.156693 0.0 -0.477126 -0.056362 -6.577207 0.241693 0.040374 1.264662 -0.507098 0.716335 -4.276224 -3.621748 -0.930344 9.735044 2.854047 1.89558 11.60777 -0.078881 1.565566 -3.710633 2.357235 0.933621 -12.336419 7.7e-05 -2.3e-05 6e-06 -8e-05 -0.10683 0.053212 0.644352 -3.839951 -10.59528 -0.644919 3.640097 -10.583078 -15.614588 -3.971719 11.140735 -55.360569 -9.437576 22.518414 0.457417 -24.125847 -0.160313 -3.142216 0.695681 -2.507072 -5.882114 9.861297 0.702588 -10.936885 -0.360574 7.156211 -1e-06 8.774832 -2e-06 -16.067894 18.175882 5.985543 -1.844036 2.498508 -2.50728 -10.163612 4.678951 4.621112 -20.976053 -2e-06 -1e-06 -21.226313 2.451701 -3.594005 1e-06 -7e-06 -2e-06 -1.362684 2.2408 -0.746323 -21.334942 0.584913 3.008322 -13.821235 -2e-06 -1e-06 -23.887203 -0.249078 -0.839487 -59.917755 2.454929 -1.207032 -0.294025 1.679689 0.833256 -14.218225 0.093217 1.30058 -34.212093 -0.287562 0.967167 -20.033239 0.964537 1.212841 0.0 2e-06 1e-06 -3.440393 0.788234 0.501654 -15.928205 -3.167311 2.999708 -6.338834 -0.0 1e-06 -18.123472 3.648187 -4.905677 -2e-06 0.0 -2e-06 17.509884 7.442211 12.433961 44.322773 0.003868 -6.212538 0.387542 29.485374 0.604295 5.19666 -7.909811 -9.815519 2.243544 -5.255041 -3.180158 14.282902 -0.826597 6.952504 -2e-06 -12.690615 2e-06 15.920227 -17.731689 2.820785 1.665668 -1.955921 -2.878299 4.727803 -4.170593 4.993926 11.020535 2e-06 -1e-06 12.10906 -3.735719 -2.866785 -0.0 -0.0 -0.0 1.291986 -1.92855 -1.498089 14.800139 0.567467 3.865608 14.242582 -1.341737 -6.66066 19.631979 0.143925 -0.648246 49.903011 -0.26252 -6.132416 0.353028 -1.511153 -0.03194 20.222805 3.684312 2.31663 18.787287 3e-06 -3e-06 10.751635 -0.47987 1.397905 0.0 -0.0 0.0 3.273809 0.305947 -0.580111 21.486824 11.83038 2.26613 8.16293 3e-06 -2e-06 18.399094 -3.798987 -4.94058 2e-06 -1e-06 -1e-06 10.357597 14.647488 4.076304 -0.055534 -0.170759 10.668263 -10.190578 1.506761 -5.911545 1.609959 -2.013849 -1.422491 0.0 -0.0 2e-06 -9.117936 -10.4973 2.266852 -0.057465 -0.124102 8.936355 9.959951 -5.341465 -3.109067 -1.417155 1.086527 -0.093872 0.0 0.0 -1e-06 
0.291309 0.0 -1.812126 0.0 -0.280048 0.0 0.0 99.130249 0.0 -0.435252 -0.05257 -6.642317 0.127279 0.032896 1.238792 -0.505179 0.760779 -4.307187 -3.86499 -0.950371 9.696431 2.904513 1.883484 11.59781 -0.104001 1.483503 -3.725511 2.330434 0.85195 -12.241685 7.7e-05 -2.3e-05 6e-06 -0.000724 -0.130712 0.05071 0.641838 -3.860919 -10.595047 -0.64375 3.612634 -10.584536 -15.371738 -4.02153 11.129147 -55.458607 -9.319869 23.108212 0.548641 -24.122965 -0.174225 -3.018053 0.835483 -2.275357 -5.882105 9.861285 0.70259 -10.936868 -0.360575 7.156204 -0.0 8.774824 -3e-06 -16.04472 18.152647 5.992794 -1.844032 2.498505 -2.507277 -10.163598 4.678944 4.621107 -20.976017 -2e-06 2e-06 -21.226286 2.451696 -3.594002 3e-06 -7e-06 -1e-06 -1.362682 2.240798 -0.746322 -21.334909 0.58491 3.008323 -13.821213 -2e-06 1e-06 -23.887167 -0.249076 -0.839484 -59.962559 2.457899 -1.159287 -0.294025 1.679687 0.833257 -14.218205 0.093216 1.300581 -34.212048 -0.287559 0.96717 -20.033213 0.964537 1.212841 0.0 1e-06 1e-06 -3.440388 0.788233 0.501655 -15.928183 -3.167309 2.999707 -6.338825 0.0 1e-06 -18.123444 3.648184 -4.905667 -2e-06 1e-06 -0.0 17.038338 7.384161 12.12603 41.00415 -1.354726 -11.526956 0.12411 32.74538 0.867228 3.332139 -8.846745 -10.323246 2.243541 -5.255036 -3.180156 14.282887 -0.826594 6.9525 -1e-06 -12.690601 -0.0 15.730685 -17.770699 2.89623 1.665667 -1.955922 -2.878298 4.727796 -4.170587 4.993923 11.020522 4e-06 -2e-06 12.109048 -3.735715 -2.866784 0.0 -0.0 -0.0 1.291985 -1.928549 -1.498088 14.800125 0.567467 3.865605 14.242568 -1.341734 -6.660657 19.631966 0.143927 -0.648245 49.864635 -0.305896 -6.063101 0.353028 -1.51115 -0.03194 20.222786 3.684308 2.316628 18.78727 4e-06 -3e-06 10.751625 -0.479868 1.397905 1e-06 -1e-06 1e-06 3.273805 0.305947 -0.580111 21.486805 11.830372 2.26613 8.162924 2e-06 -2e-06 18.399076 -3.798982 -4.940575 2e-06 0.0 -1e-06 10.259222 14.613581 4.042172 -0.04216 -0.190466 10.923026 -10.026682 1.602908 -6.08672 1.610185 -1.993221 -1.500555 0.0 -2e-06 2e-06 -9.231362 -10.449069 2.194528 -0.05299 -0.106969 9.194618 10.106637 -5.229743 -3.2097 -1.411307 1.092824 -0.199287 0.0 0.0 -1e-06 
